<svg xmlns="http://www.w3.org/2000/svg" xmlns:xlink="http://www.w3.org/1999/xlink" width="3400" zoomAndPan="magnify" viewBox="0 0 2550 1439.999935" height="1920" preserveAspectRatio="xMidYMid meet" version="1.0"><metadata><ContainsAiGeneratedContent>Yes</ContainsAiGeneratedContent></metadata><defs><g/><clipPath id="b5c5479e1d"><rect x="0" width="2550" y="0" height="435"/></clipPath><clipPath id="f9cc362dfa"><path d="M 1235 123.742188 L 1459 123.742188 L 1459 456 L 1235 456 Z M 1235 123.742188 " clip-rule="nonzero"/></clipPath><clipPath id="63639a561c"><path d="M 1021.320312 246 L 1255 246 L 1255 484 L 1021.320312 484 Z M 1021.320312 246 " clip-rule="nonzero"/></clipPath><clipPath id="4bda5e09c9"><path d="M 1931 503 L 1988 503 L 1988 602 L 1931 602 Z M 1931 503 " clip-rule="nonzero"/></clipPath><clipPath id="ac74ac7337"><path d="M 1912.792969 582.0625 L 1950.460938 495.394531 L 2006.175781 519.609375 L 1968.507812 606.277344 Z M 1912.792969 582.0625 " clip-rule="nonzero"/></clipPath><clipPath id="71b395947e"><path d="M 1912.792969 582.0625 L 1950.460938 495.394531 L 2006.175781 519.609375 L 1968.507812 606.277344 Z M 1912.792969 582.0625 " clip-rule="nonzero"/></clipPath><clipPath id="d9e42b9927"><path d="M 1912.792969 582.0625 L 1950.460938 495.394531 L 2006.175781 519.609375 L 1968.507812 606.277344 Z M 1912.792969 582.0625 " clip-rule="nonzero"/></clipPath><clipPath id="ac762eda41"><path d="M 0.199219 25 L 169 25 L 169 129 L 0.199219 129 Z M 0.199219 25 " clip-rule="nonzero"/></clipPath><clipPath id="fea0b09fe4"><rect x="0" width="1561" y="0" height="164"/></clipPath></defs><g transform="matrix(1, 0, 0, 1, 0, 593)"><g clip-path="url(#b5c5479e1d)"><g fill="#40622e" fill-opacity="1"><g transform="translate(1.513683, 346.24969)"><g><path d="M 241.6875 3.046875 C 229.8125 3.046875 220.320312 0.363281 213.21875 -5 C 206.125 -10.363281 199.894531 -18.550781 194.53125 -29.5625 C 189.164062 -40.570312 183.007812 -54.484375 176.0625 -71.296875 C 169.675781 -87.234375 164.3125 -100.632812 159.96875 -111.5 C 155.625 -122.363281 151.421875 -131.054688 147.359375 -137.578125 C 143.304688 -144.097656 138.378906 -148.804688 132.578125 -151.703125 C 126.785156 -154.609375 119.109375 -156.0625 109.546875 -156.0625 L 83.890625 -156.0625 L 83.890625 -55.203125 C 83.890625 -39.554688 84.976562 -28.035156 87.15625 -20.640625 C 89.332031 -13.253906 94.039062 -8.398438 101.28125 -6.078125 L 101.28125 0 L 20.4375 0 L 20.4375 -6.078125 C 27.675781 -8.398438 32.378906 -13.253906 34.546875 -20.640625 C 36.722656 -28.035156 37.8125 -39.554688 37.8125 -55.203125 L 37.8125 -249.078125 C 37.8125 -264.734375 36.722656 -276.253906 34.546875 -283.640625 C 32.378906 -291.035156 27.675781 -295.890625 20.4375 -298.203125 L 20.4375 -304.296875 L 111.71875 -304.296875 C 135.476562 -304.296875 154.820312 -302.335938 169.75 -298.421875 C 184.675781 -294.515625 196.195312 -289.300781 204.3125 -282.78125 C 212.425781 -276.257812 218.078125 -268.796875 221.265625 -260.390625 C 224.453125 -251.984375 226.046875 -243.429688 226.046875 -234.734375 C 226.046875 -214.742188 219.085938 -197.789062 205.171875 -183.875 C 191.265625 -169.96875 169.820312 -161.273438 140.84375 -157.796875 C 153.007812 -156.347656 163.078125 -153.882812 171.046875 -150.40625 C 179.023438 -146.925781 185.835938 -141.925781 191.484375 -135.40625 C 197.140625 -128.882812 202.285156 -120.625 206.921875 -110.625 C 211.554688 -100.632812 216.769531 -88.394531 222.5625 -73.90625 C 230.394531 -54.769531 236.484375 -40.273438 240.828125 -30.421875 C 245.171875 -20.578125 249.222656 -13.988281 252.984375 -10.65625 C 256.753906 -7.320312 261.25 -5.65625 266.46875 -5.65625 C 267.632812 -5.65625 268.722656 -5.65625 269.734375 -5.65625 C 270.742188 -5.65625 271.832031 -5.796875 273 -6.078125 L 273 0 C 268.070312 1.15625 262.5625 1.953125 256.46875 2.390625 C 250.382812 2.828125 245.457031 3.046875 241.6875 3.046875 Z M 83.890625 -163.015625 L 111.71875 -163.015625 C 128.238281 -163.015625 141.492188 -165.765625 151.484375 -171.265625 C 161.484375 -176.773438 168.726562 -184.238281 173.21875 -193.65625 C 177.71875 -203.070312 179.96875 -213.289062 179.96875 -224.3125 C 179.96875 -236.1875 177.359375 -247.703125 172.140625 -258.859375 C 166.921875 -270.023438 158.660156 -279.226562 147.359375 -286.46875 C 136.054688 -293.71875 121.28125 -297.34375 103.03125 -297.34375 C 96.9375 -297.34375 90.554688 -296.90625 83.890625 -296.03125 Z M 83.890625 -163.015625 "/></g></g></g><g fill="#40622e" fill-opacity="1"><g transform="translate(270.160336, 346.24969)"><g><path d="M 20.4375 0 L 20.4375 -6.078125 C 27.675781 -8.398438 32.378906 -13.253906 34.546875 -20.640625 C 36.722656 -28.035156 37.8125 -39.554688 37.8125 -55.203125 L 37.8125 -249.078125 C 37.8125 -264.734375 36.722656 -276.253906 34.546875 -283.640625 C 32.378906 -291.035156 27.675781 -295.890625 20.4375 -298.203125 L 20.4375 -304.296875 L 229.09375 -304.296875 L 233.875 -243 L 228.21875 -241.6875 C 219.519531 -263.132812 207.851562 -277.769531 193.21875 -285.59375 C 178.582031 -293.425781 159.097656 -297.34375 134.765625 -297.34375 L 83.890625 -297.34375 L 83.890625 -166.921875 L 125.625 -166.921875 C 143.300781 -166.921875 157.210938 -168.078125 167.359375 -170.390625 C 177.503906 -172.710938 185.039062 -176.335938 189.96875 -181.265625 C 194.894531 -186.191406 198.515625 -192.425781 200.828125 -199.96875 L 206.921875 -199.96875 L 206.921875 -126.9375 L 200.828125 -126.9375 C 198.515625 -134.46875 194.894531 -140.695312 189.96875 -145.625 C 185.039062 -150.550781 177.503906 -154.171875 167.359375 -156.484375 C 157.210938 -158.804688 143.300781 -159.96875 125.625 -159.96875 L 83.890625 -159.96875 L 83.890625 -28.6875 C 83.890625 -14.195312 91.140625 -6.953125 105.640625 -6.953125 L 147.359375 -6.953125 C 169.390625 -6.953125 187.9375 -11.007812 203 -19.125 C 218.070312 -27.238281 229.664062 -42.3125 237.78125 -64.34375 L 243.4375 -63.46875 L 240.390625 0 Z M 20.4375 0 "/></g></g></g><g fill="#40622e" fill-opacity="1"><g transform="translate(528.808921, 346.24969)"><g><path d="M 20.4375 0 L 20.4375 -6.078125 C 27.675781 -8.398438 32.378906 -13.253906 34.546875 -20.640625 C 36.722656 -28.035156 37.8125 -39.554688 37.8125 -55.203125 L 37.8125 -249.078125 C 37.8125 -264.734375 36.722656 -276.253906 34.546875 -283.640625 C 32.378906 -291.035156 27.675781 -295.890625 20.4375 -298.203125 L 20.4375 -304.296875 L 101.28125 -304.296875 L 101.28125 -298.203125 C 94.039062 -295.890625 89.332031 -291.035156 87.15625 -283.640625 C 84.976562 -276.253906 83.890625 -264.734375 83.890625 -249.078125 L 83.890625 -29.5625 C 83.890625 -15.070312 91.140625 -7.828125 105.640625 -7.828125 L 141.28125 -7.828125 C 163.300781 -7.828125 180.613281 -11.160156 193.21875 -17.828125 C 205.832031 -24.492188 216.484375 -37.097656 225.171875 -55.640625 L 230.828125 -54.765625 L 227.34375 0 Z M 20.4375 0 "/></g></g></g><g fill="#40622e" fill-opacity="1"><g transform="translate(767.461116, 346.24969)"><g><path d="M -9.125 0 L -9.125 -6.078125 C -2.457031 -8.398438 3.84375 -12.894531 9.78125 -19.5625 C 15.71875 -26.226562 21.585938 -36.804688 27.390625 -51.296875 L 108.671875 -253 C 111.859375 -261.113281 111.570312 -268.9375 107.8125 -276.46875 L 102.15625 -288.640625 L 144.75 -307.765625 L 252.5625 -50.859375 C 258.644531 -36.660156 264.507812 -26.226562 270.15625 -19.5625 C 275.8125 -12.894531 281.101562 -8.398438 286.03125 -6.078125 L 286.03125 0 L 206.921875 0 L 206.921875 -6.078125 C 214.160156 -8.398438 216.835938 -12.894531 214.953125 -19.5625 C 213.078125 -26.226562 209.09375 -36.660156 203 -50.859375 L 176.921875 -113.453125 L 60.859375 -113.453125 L 35.640625 -51.296875 C 29.847656 -36.804688 27.53125 -26.082031 28.6875 -19.125 C 29.84375 -12.164062 34.046875 -7.816406 41.296875 -6.078125 L 41.296875 0 Z M 63.46875 -120.40625 L 173.875 -120.40625 L 117.796875 -254.734375 Z M 63.46875 -120.40625 "/></g></g></g><g fill="#40622e" fill-opacity="1"><g transform="translate(1046.975371, 346.24969)"><g><path d="M 175.625 0 L 175.625 -6.078125 C 182.863281 -8.398438 184.890625 -12.53125 181.703125 -18.46875 C 178.515625 -24.414062 172.71875 -34.050781 164.3125 -47.375 L 108.671875 -139.96875 L 46.078125 -46.078125 C 37.378906 -33.035156 33.460938 -23.539062 34.328125 -17.59375 C 35.203125 -11.65625 40.421875 -7.816406 49.984375 -6.078125 L 49.984375 0 L -6.078125 0 L -6.078125 -6.078125 C 0.296875 -8.398438 6.882812 -12.382812 13.6875 -18.03125 C 20.5 -23.6875 28.253906 -33.035156 36.953125 -46.078125 L 104.328125 -147.359375 L 38.25 -256.90625 C 30.132812 -270.53125 22.960938 -280.3125 16.734375 -286.25 C 10.503906 -292.1875 4.925781 -296.171875 0 -298.203125 L 0 -304.296875 L 80.859375 -304.296875 L 80.859375 -298.203125 C 73.609375 -295.890625 71.648438 -291.832031 74.984375 -286.03125 C 78.316406 -280.238281 84.039062 -270.53125 92.15625 -256.90625 L 139.109375 -179.09375 L 191.703125 -258.21875 C 200.398438 -271.257812 204.3125 -280.75 203.4375 -286.6875 C 202.570312 -292.625 197.359375 -296.460938 187.796875 -298.203125 L 187.796875 -304.296875 L 243.875 -304.296875 L 243.875 -298.203125 C 237.5 -296.171875 230.90625 -292.257812 224.09375 -286.46875 C 217.28125 -280.675781 209.523438 -271.257812 200.828125 -258.21875 L 143.453125 -171.703125 L 218.21875 -47.375 C 226.625 -34.050781 233.941406 -24.414062 240.171875 -18.46875 C 246.398438 -12.53125 251.832031 -8.398438 256.46875 -6.078125 L 256.46875 0 Z M 175.625 0 "/></g></g></g><g fill="#40622e" fill-opacity="1"><g transform="translate(1296.060437, 346.24969)"><g><path d="M 20.4375 0 L 20.4375 -6.078125 C 27.675781 -8.398438 32.378906 -13.253906 34.546875 -20.640625 C 36.722656 -28.035156 37.8125 -39.554688 37.8125 -55.203125 L 37.8125 -249.078125 C 37.8125 -264.734375 36.722656 -276.253906 34.546875 -283.640625 C 32.378906 -291.035156 27.675781 -295.890625 20.4375 -298.203125 L 20.4375 -304.296875 L 111.71875 -304.296875 C 136.644531 -304.296875 157.003906 -301.613281 172.796875 -296.25 C 188.585938 -290.882812 200.898438 -283.925781 209.734375 -275.375 C 218.578125 -266.832031 224.738281 -257.632812 228.21875 -247.78125 C 231.695312 -237.925781 233.4375 -228.648438 233.4375 -219.953125 C 233.4375 -201.992188 228.941406 -185.332031 219.953125 -169.96875 C 210.972656 -154.601562 197.0625 -142.359375 178.21875 -133.234375 C 159.382812 -124.109375 135.046875 -119.546875 105.203125 -119.546875 L 83.890625 -119.546875 L 83.890625 -55.203125 C 83.890625 -39.554688 84.976562 -28.035156 87.15625 -20.640625 C 89.332031 -13.253906 94.039062 -8.398438 101.28125 -6.078125 L 101.28125 0 Z M 83.890625 -126.5 L 103.03125 -126.5 C 131.425781 -126.5 152.070312 -134.03125 164.96875 -149.09375 C 177.863281 -164.164062 184.3125 -184.019531 184.3125 -208.65625 C 184.3125 -217.925781 183.003906 -227.707031 180.390625 -238 C 177.785156 -248.289062 173.222656 -257.925781 166.703125 -266.90625 C 160.179688 -275.894531 151.269531 -283.210938 139.96875 -288.859375 C 128.664062 -294.515625 114.46875 -297.34375 97.375 -297.34375 C 92.445312 -297.34375 87.953125 -297.050781 83.890625 -296.46875 Z M 83.890625 -126.5 "/></g></g></g><g fill="#40622e" fill-opacity="1"><g transform="translate(1539.059645, 346.24969)"><g><path d="M 179.09375 4.34375 C 160.550781 4.34375 142.148438 1.226562 123.890625 -5 C 105.628906 -11.226562 88.890625 -20.789062 73.671875 -33.6875 C 58.460938 -46.582031 46.289062 -62.957031 37.15625 -82.8125 C 28.03125 -102.664062 23.46875 -126.210938 23.46875 -153.453125 C 23.46875 -174.898438 27.234375 -194.96875 34.765625 -213.65625 C 42.304688 -232.34375 52.957031 -248.710938 66.71875 -262.765625 C 80.488281 -276.828125 96.9375 -287.84375 116.0625 -295.8125 C 135.1875 -303.78125 156.195312 -307.765625 179.09375 -307.765625 C 197.351562 -307.765625 215.679688 -304.578125 234.078125 -298.203125 C 252.484375 -291.828125 269.222656 -282.191406 284.296875 -269.296875 C 299.367188 -256.398438 311.46875 -240.097656 320.59375 -220.390625 C 329.71875 -200.679688 334.28125 -177.5 334.28125 -150.84375 C 334.28125 -124.46875 329.71875 -101.5 320.59375 -81.9375 C 311.46875 -62.375 299.296875 -46.21875 284.078125 -33.46875 C 268.859375 -20.71875 252.117188 -11.226562 233.859375 -5 C 215.609375 1.226562 197.351562 4.34375 179.09375 4.34375 Z M 68.6875 -179.96875 C 70.132812 -158.226562 74.550781 -137.144531 81.9375 -116.71875 C 89.332031 -96.289062 98.96875 -78.03125 110.84375 -61.9375 C 122.726562 -45.851562 136.566406 -33.03125 152.359375 -23.46875 C 168.160156 -13.90625 185.332031 -9.125 203.875 -9.125 C 226.1875 -9.125 243.863281 -14.125 256.90625 -24.125 C 269.945312 -34.125 279.148438 -47.238281 284.515625 -63.46875 C 289.878906 -79.695312 291.832031 -97.375 290.375 -116.5 C 288.644531 -139.6875 284.300781 -162 277.34375 -183.4375 C 270.382812 -204.882812 261.035156 -224.15625 249.296875 -241.25 C 237.566406 -258.351562 223.875 -271.832031 208.21875 -281.6875 C 192.570312 -291.539062 175.332031 -296.46875 156.5 -296.46875 C 136.789062 -296.46875 120.125 -291.6875 106.5 -282.125 C 92.882812 -272.5625 82.816406 -259.007812 76.296875 -241.46875 C 69.773438 -223.9375 67.238281 -203.4375 68.6875 -179.96875 Z M 68.6875 -179.96875 "/></g></g></g><g fill="#40622e" fill-opacity="1"><g transform="translate(1895.516431, 346.24969)"><g><path d="M 20.4375 0 L 20.4375 -6.078125 C 27.675781 -8.398438 32.378906 -13.253906 34.546875 -20.640625 C 36.722656 -28.035156 37.8125 -39.554688 37.8125 -55.203125 L 37.8125 -249.078125 C 37.8125 -264.734375 36.722656 -276.253906 34.546875 -283.640625 C 32.378906 -291.035156 27.675781 -295.890625 20.4375 -298.203125 L 20.4375 -304.296875 L 101.28125 -304.296875 L 101.28125 -298.203125 C 94.039062 -295.890625 89.332031 -291.035156 87.15625 -283.640625 C 84.976562 -276.253906 83.890625 -264.734375 83.890625 -249.078125 L 83.890625 -55.203125 C 83.890625 -39.554688 84.976562 -28.035156 87.15625 -20.640625 C 89.332031 -13.253906 94.039062 -8.398438 101.28125 -6.078125 L 101.28125 0 Z M 20.4375 0 "/></g></g></g><g fill="#40622e" fill-opacity="1"><g transform="translate(2017.233369, 346.24969)"><g><path d="M 249.515625 3.484375 L 45.640625 -253.859375 L 45.640625 -81.296875 C 45.640625 -63.609375 46.796875 -49.691406 49.109375 -39.546875 C 51.429688 -29.410156 55.054688 -21.878906 59.984375 -16.953125 C 64.910156 -12.023438 71.144531 -8.398438 78.6875 -6.078125 L 78.6875 0 L 20.4375 0 L 20.4375 -6.078125 C 27.675781 -8.398438 32.378906 -13.253906 34.546875 -20.640625 C 36.722656 -28.035156 37.8125 -39.554688 37.8125 -55.203125 L 37.8125 -249.078125 C 37.8125 -264.734375 36.363281 -276.253906 33.46875 -283.640625 C 30.570312 -291.035156 24.488281 -295.890625 15.21875 -298.203125 L 15.21875 -304.296875 L 64.34375 -304.296875 L 246.90625 -75.640625 L 246.90625 -223 C 246.90625 -240.675781 245.742188 -254.585938 243.421875 -264.734375 C 241.109375 -274.878906 237.488281 -282.414062 232.5625 -287.34375 C 227.632812 -292.269531 221.40625 -295.890625 213.875 -298.203125 L 213.875 -304.296875 L 272.5625 -304.296875 L 272.5625 -298.203125 C 265.3125 -295.890625 260.597656 -291.035156 258.421875 -283.640625 C 256.253906 -276.253906 255.171875 -264.734375 255.171875 -249.078125 L 255.171875 3.484375 Z M 249.515625 3.484375 "/></g></g></g><g fill="#40622e" fill-opacity="1"><g transform="translate(2305.007074, 346.24969)"><g><path d="M 81.71875 0 L 81.71875 -6.078125 C 88.96875 -8.398438 93.675781 -13.253906 95.84375 -20.640625 C 98.019531 -28.035156 99.109375 -39.554688 99.109375 -55.203125 L 99.109375 -296.46875 L 85.640625 -296.46875 C 66.222656 -296.46875 51.003906 -293.207031 39.984375 -286.6875 C 28.972656 -280.164062 19.410156 -268.210938 11.296875 -250.828125 L 6.078125 -251.6875 L 8.6875 -304.296875 L 235.171875 -304.296875 L 237.78125 -251.6875 L 232.5625 -250.828125 C 224.445312 -268.210938 214.882812 -280.164062 203.875 -286.6875 C 192.863281 -293.207031 177.648438 -296.46875 158.234375 -296.46875 L 145.625 -296.46875 L 145.625 -55.203125 C 145.625 -39.554688 146.707031 -28.035156 148.875 -20.640625 C 151.050781 -13.253906 155.765625 -8.398438 163.015625 -6.078125 L 163.015625 0 Z M 81.71875 0 "/></g></g></g></g></g><g clip-path="url(#f9cc362dfa)"><path fill="#007f18" d="M 1446.871094 123.742188 C 1380.320312 197.644531 1377.824219 175.878906 1279.070312 261.03125 C 1258.136719 279.082031 1244.316406 298.105469 1235.539062 316.878906 C 1239.019531 320.960938 1242.222656 325.164062 1245.125 329.496094 C 1264.578125 358.492188 1271.09375 392.605469 1264.640625 431.273438 C 1371.785156 347.027344 1419.761719 206.183594 1419.761719 206.183594 C 1391.042969 321.90625 1321.988281 402.066406 1259.640625 453.488281 C 1259.5 453.992188 1259.351562 454.5 1259.207031 455.007812 C 1528.21875 476.515625 1446.871094 123.742188 1446.871094 123.742188 Z M 1446.871094 123.742188 " fill-opacity="1" fill-rule="nonzero"/></g><g clip-path="url(#63639a561c)"><path fill="#8bc53f" d="M 1241.910156 467.207031 C 1214.898438 406.523438 1166.421875 333.820312 1080.589844 285.839844 C 1080.589844 285.839844 1197.691406 365.085938 1233.785156 481.574219 C 1217.832031 484.613281 1135.023438 495.730469 1093.628906 408.878906 C 1047.703125 312.503906 1065.398438 315.203125 1021.425781 246.707031 C 1021.425781 246.707031 1317.894531 258.105469 1241.910156 467.207031 Z M 1241.910156 467.207031 " fill-opacity="1" fill-rule="nonzero"/></g><path fill="#007f18" d="M 1245.832031 217.394531 C 1245.832031 218.808594 1245.761719 220.214844 1245.621094 221.621094 C 1245.484375 223.027344 1245.277344 224.425781 1245.003906 225.808594 C 1244.726562 227.195312 1244.386719 228.566406 1243.976562 229.917969 C 1243.566406 231.269531 1243.089844 232.597656 1242.550781 233.902344 C 1242.011719 235.207031 1241.410156 236.484375 1240.746094 237.730469 C 1240.078125 238.976562 1239.355469 240.1875 1238.570312 241.363281 C 1237.789062 242.535156 1236.949219 243.671875 1236.054688 244.761719 C 1235.160156 245.855469 1234.214844 246.898438 1233.214844 247.898438 C 1232.21875 248.898438 1231.175781 249.847656 1230.082031 250.742188 C 1228.992188 251.640625 1227.863281 252.480469 1226.6875 253.265625 C 1225.515625 254.050781 1224.308594 254.773438 1223.0625 255.441406 C 1221.820312 256.105469 1220.546875 256.710938 1219.242188 257.25 C 1217.941406 257.792969 1216.613281 258.265625 1215.261719 258.675781 C 1213.914062 259.085938 1212.546875 259.429688 1211.164062 259.707031 C 1209.78125 259.980469 1208.386719 260.1875 1206.984375 260.328125 C 1205.578125 260.464844 1204.171875 260.535156 1202.761719 260.535156 C 1201.351562 260.535156 1199.941406 260.464844 1198.539062 260.328125 C 1197.136719 260.1875 1195.742188 259.980469 1194.359375 259.707031 C 1192.976562 259.429688 1191.609375 259.085938 1190.257812 258.675781 C 1188.910156 258.265625 1187.582031 257.792969 1186.277344 257.25 C 1184.976562 256.710938 1183.703125 256.105469 1182.457031 255.441406 C 1181.214844 254.773438 1180.007812 254.050781 1178.832031 253.265625 C 1177.660156 252.480469 1176.527344 251.640625 1175.4375 250.742188 C 1174.347656 249.847656 1173.304688 248.898438 1172.304688 247.898438 C 1171.308594 246.898438 1170.363281 245.855469 1169.46875 244.761719 C 1168.574219 243.671875 1167.734375 242.535156 1166.949219 241.363281 C 1166.167969 240.1875 1165.441406 238.976562 1164.777344 237.730469 C 1164.113281 236.484375 1163.511719 235.207031 1162.96875 233.902344 C 1162.429688 232.597656 1161.957031 231.269531 1161.546875 229.917969 C 1161.136719 228.566406 1160.792969 227.195312 1160.519531 225.808594 C 1160.246094 224.425781 1160.039062 223.027344 1159.898438 221.621094 C 1159.761719 220.214844 1159.691406 218.808594 1159.691406 217.394531 C 1159.691406 215.980469 1159.761719 214.570312 1159.898438 213.164062 C 1160.039062 211.757812 1160.246094 210.363281 1160.519531 208.976562 C 1160.792969 207.589844 1161.136719 206.222656 1161.546875 204.871094 C 1161.957031 203.519531 1162.429688 202.191406 1162.96875 200.882812 C 1163.511719 199.578125 1164.113281 198.304688 1164.777344 197.058594 C 1165.441406 195.8125 1166.167969 194.601562 1166.949219 193.425781 C 1167.734375 192.25 1168.574219 191.117188 1169.46875 190.027344 C 1170.363281 188.933594 1171.308594 187.886719 1172.304688 186.886719 C 1173.304688 185.890625 1174.347656 184.941406 1175.4375 184.046875 C 1176.527344 183.148438 1177.660156 182.308594 1178.832031 181.523438 C 1180.007812 180.738281 1181.214844 180.011719 1182.457031 179.347656 C 1183.703125 178.679688 1184.976562 178.078125 1186.277344 177.535156 C 1187.582031 176.996094 1188.910156 176.519531 1190.257812 176.109375 C 1191.609375 175.699219 1192.976562 175.355469 1194.359375 175.082031 C 1195.742188 174.804688 1197.136719 174.597656 1198.539062 174.460938 C 1199.941406 174.320312 1201.351562 174.253906 1202.761719 174.253906 C 1204.171875 174.253906 1205.578125 174.320312 1206.984375 174.460938 C 1208.386719 174.597656 1209.78125 174.804688 1211.164062 175.082031 C 1212.546875 175.355469 1213.914062 175.699219 1215.261719 176.109375 C 1216.613281 176.519531 1217.941406 176.996094 1219.242188 177.535156 C 1220.546875 178.078125 1221.820312 178.679688 1223.0625 179.347656 C 1224.308594 180.011719 1225.515625 180.738281 1226.6875 181.523438 C 1227.863281 182.308594 1228.992188 183.148438 1230.082031 184.046875 C 1231.175781 184.941406 1232.21875 185.890625 1233.214844 186.886719 C 1234.214844 187.886719 1235.160156 188.933594 1236.054688 190.027344 C 1236.949219 191.117188 1237.789062 192.25 1238.570312 193.425781 C 1239.355469 194.601562 1240.078125 195.8125 1240.746094 197.058594 C 1241.410156 198.304688 1242.011719 199.578125 1242.550781 200.882812 C 1243.089844 202.191406 1243.566406 203.519531 1243.976562 204.871094 C 1244.386719 206.222656 1244.726562 207.589844 1245.003906 208.976562 C 1245.277344 210.363281 1245.484375 211.757812 1245.621094 213.164062 C 1245.761719 214.570312 1245.832031 215.980469 1245.832031 217.394531 Z M 1245.832031 217.394531 " fill-opacity="1" fill-rule="nonzero"/><g clip-path="url(#4bda5e09c9)"><g clip-path="url(#ac74ac7337)"><g clip-path="url(#71b395947e)"><g clip-path="url(#d9e42b9927)"><path fill="#78aa29" d="M 1931.703125 550.101562 C 1930.011719 568.621094 1939.699219 578.894531 1954.089844 583.207031 C 1954.847656 590.011719 1955.820312 596.238281 1956.386719 599.648438 C 1956.609375 600.984375 1958.085938 601.707031 1959.277344 601.0625 L 1960.730469 600.28125 C 1961.589844 599.816406 1961.976562 598.792969 1961.636719 597.875 C 1960.042969 593.550781 1958.851562 588.355469 1957.972656 583.34375 C 1955.675781 563.425781 1954.121094 557.371094 1958.617188 539.128906 C 1957.195312 556.355469 1959.375 569.640625 1962.882812 584.242188 C 1970.597656 582.535156 1978.128906 574.992188 1982.160156 570.109375 C 1986.558594 564.761719 1988.410156 559.039062 1987.363281 551.351562 C 1985.984375 541.484375 1980.71875 530.816406 1976.675781 521.261719 C 1972.488281 511.929688 1969.519531 503.710938 1969.429688 503.867188 C 1969.542969 504.074219 1961.035156 506.667969 1951.898438 514.640625 C 1942.800781 522.332031 1933.078125 535.398438 1931.703125 550.101562 " fill-opacity="1" fill-rule="nonzero"/></g></g></g></g><g transform="matrix(1, 0, 0, 1, 493, 1177)"><g clip-path="url(#fea0b09fe4)"><g clip-path="url(#ac762eda41)"><g fill="#5b9411" fill-opacity="1"><g transform="translate(4.604214, 126.966896)"><g><path d="M 116.859375 -25.5625 L 134.65625 -76.421875 C 136.757812 -82.304688 137.8125 -86.695312 137.8125 -89.59375 C 137.8125 -92.3125 136.863281 -94.085938 134.96875 -94.921875 C 133.082031 -95.753906 130.164062 -96.171875 126.21875 -96.171875 L 126.21875 -101.453125 L 163.640625 -101.453125 L 163.640625 -96.171875 C 160.296875 -96.171875 157.285156 -95.359375 154.609375 -93.734375 C 151.929688 -92.109375 149.890625 -89.363281 148.484375 -85.5 L 116.734375 1.3125 L 105 1.3125 L 82.078125 -68.25 L 56 1.3125 L 45.0625 1.3125 L 17.125 -75.625 C 15.457031 -80.101562 13.921875 -83.703125 12.515625 -86.421875 C 11.109375 -89.148438 9.613281 -91.21875 8.03125 -92.625 C 6.457031 -94.03125 4.742188 -94.953125 2.890625 -95.390625 C 1.046875 -95.828125 -1.144531 -96.046875 -3.6875 -96.046875 L -3.6875 -101.453125 L 46.109375 -101.453125 L 46.109375 -96.046875 C 41.628906 -96.046875 38.554688 -95.628906 36.890625 -94.796875 C 35.222656 -93.960938 34.390625 -92.578125 34.390625 -90.640625 C 34.390625 -89.941406 34.429688 -89.257812 34.515625 -88.59375 C 34.609375 -87.9375 34.785156 -87.191406 35.046875 -86.359375 C 35.304688 -85.523438 35.632812 -84.492188 36.03125 -83.265625 C 36.425781 -82.035156 36.976562 -80.5 37.6875 -78.65625 L 56.125 -25.5625 L 77.46875 -83.796875 C 76.59375 -86.160156 75.710938 -88.085938 74.828125 -89.578125 C 73.953125 -91.078125 72.921875 -92.265625 71.734375 -93.140625 C 70.546875 -94.023438 69.207031 -94.664062 67.71875 -95.0625 C 66.226562 -95.457031 64.425781 -95.785156 62.3125 -96.046875 L 62.3125 -101.453125 L 108.828125 -101.453125 L 108.828125 -96.046875 C 105.140625 -96.046875 102.414062 -95.582031 100.65625 -94.65625 C 98.894531 -93.738281 98.015625 -91.960938 98.015625 -89.328125 C 98.015625 -88.003906 98.210938 -86.460938 98.609375 -84.703125 C 99.003906 -82.953125 99.554688 -80.9375 100.265625 -78.65625 Z M 116.859375 -25.5625 "/></g></g></g></g><g fill="#5b9411" fill-opacity="1"><g transform="translate(166.261328, 126.966896)"><g><path d="M 37.8125 -56.125 C 43.4375 -56.125 47.957031 -56.296875 51.375 -56.640625 C 54.800781 -56.992188 57.457031 -57.71875 59.34375 -58.8125 C 61.238281 -59.914062 62.582031 -61.519531 63.375 -63.625 C 64.164062 -65.738281 64.78125 -68.597656 65.21875 -72.203125 L 70.09375 -72.203125 L 70.09375 -33.59375 L 65.21875 -33.59375 C 64.6875 -37.101562 63.984375 -39.910156 63.109375 -42.015625 C 62.234375 -44.128906 60.828125 -45.734375 58.890625 -46.828125 C 56.960938 -47.929688 54.347656 -48.632812 51.046875 -48.9375 C 47.753906 -49.25 43.34375 -49.40625 37.8125 -49.40625 L 37.8125 -22.265625 C 37.8125 -19.453125 38.179688 -17.078125 38.921875 -15.140625 C 39.671875 -13.210938 40.925781 -11.65625 42.6875 -10.46875 C 44.445312 -9.289062 46.773438 -8.457031 49.671875 -7.96875 C 52.566406 -7.488281 56.125 -7.25 60.34375 -7.25 C 65.34375 -7.25 69.578125 -7.597656 73.046875 -8.296875 C 76.523438 -9.003906 79.40625 -10.234375 81.6875 -11.984375 C 83.96875 -13.742188 85.8125 -16.09375 87.21875 -19.03125 C 88.625 -21.976562 89.8125 -25.691406 90.78125 -30.171875 L 96.046875 -30.171875 L 93.9375 0 L 4.609375 0 L 4.609375 -5.265625 C 7.503906 -5.359375 9.875 -5.625 11.71875 -6.0625 C 13.570312 -6.5 14.976562 -7.242188 15.9375 -8.296875 C 16.90625 -9.347656 17.5625 -10.835938 17.90625 -12.765625 C 18.257812 -14.703125 18.4375 -17.210938 18.4375 -20.296875 L 18.4375 -81.15625 C 18.4375 -84.226562 18.28125 -86.707031 17.96875 -88.59375 C 17.664062 -90.488281 17.078125 -91.984375 16.203125 -93.078125 C 15.328125 -94.179688 14.078125 -94.929688 12.453125 -95.328125 C 10.828125 -95.722656 8.695312 -96.003906 6.0625 -96.171875 L 6.0625 -101.453125 L 89.328125 -101.453125 L 90.25 -75.625 L 84.578125 -75.625 C 84.054688 -79.3125 83.222656 -82.363281 82.078125 -84.78125 C 80.941406 -87.195312 79.363281 -89.128906 77.34375 -90.578125 C 75.320312 -92.023438 72.707031 -93.035156 69.5 -93.609375 C 66.289062 -94.179688 62.359375 -94.46875 57.703125 -94.46875 L 42.8125 -94.46875 C 40.53125 -94.46875 39.125 -94.179688 38.59375 -93.609375 C 38.070312 -93.035156 37.8125 -91.695312 37.8125 -89.59375 Z M 37.8125 -56.125 "/></g></g></g><g fill="#5b9411" fill-opacity="1"><g transform="translate(266.918256, 126.966896)"><g><path d="M 95.390625 0 L 4.609375 0 L 4.609375 -5.265625 C 7.503906 -5.359375 9.875 -5.625 11.71875 -6.0625 C 13.570312 -6.5 14.976562 -7.242188 15.9375 -8.296875 C 16.90625 -9.347656 17.5625 -10.835938 17.90625 -12.765625 C 18.257812 -14.703125 18.4375 -17.210938 18.4375 -20.296875 L 18.4375 -81.15625 C 18.4375 -84.226562 18.28125 -86.707031 17.96875 -88.59375 C 17.664062 -90.488281 17.078125 -91.984375 16.203125 -93.078125 C 15.328125 -94.179688 14.078125 -94.929688 12.453125 -95.328125 C 10.828125 -95.722656 8.695312 -96.003906 6.0625 -96.171875 L 6.0625 -101.453125 L 51.515625 -101.453125 L 51.515625 -96.171875 C 48.523438 -96.085938 46.128906 -95.828125 44.328125 -95.390625 C 42.535156 -94.953125 41.15625 -94.160156 40.1875 -93.015625 C 39.21875 -91.867188 38.578125 -90.285156 38.265625 -88.265625 C 37.960938 -86.253906 37.8125 -83.578125 37.8125 -80.234375 L 37.8125 -25.03125 C 37.8125 -21.34375 38.179688 -18.332031 38.921875 -16 C 39.671875 -13.675781 40.96875 -11.878906 42.8125 -10.609375 C 44.65625 -9.335938 47.113281 -8.457031 50.1875 -7.96875 C 53.269531 -7.488281 57.09375 -7.25 61.65625 -7.25 C 66.75 -7.25 71.007812 -7.554688 74.4375 -8.171875 C 77.863281 -8.785156 80.738281 -9.945312 83.0625 -11.65625 C 85.394531 -13.375 87.265625 -15.679688 88.671875 -18.578125 C 90.078125 -21.472656 91.257812 -25.25 92.21875 -29.90625 L 97.5 -29.90625 Z M 95.390625 0 "/></g></g></g><g fill="#5b9411" fill-opacity="1"><g transform="translate(366.389427, 126.966896)"><g><path d="M 95.390625 0 L 4.609375 0 L 4.609375 -5.265625 C 7.503906 -5.359375 9.875 -5.625 11.71875 -6.0625 C 13.570312 -6.5 14.976562 -7.242188 15.9375 -8.296875 C 16.90625 -9.347656 17.5625 -10.835938 17.90625 -12.765625 C 18.257812 -14.703125 18.4375 -17.210938 18.4375 -20.296875 L 18.4375 -81.15625 C 18.4375 -84.226562 18.28125 -86.707031 17.96875 -88.59375 C 17.664062 -90.488281 17.078125 -91.984375 16.203125 -93.078125 C 15.328125 -94.179688 14.078125 -94.929688 12.453125 -95.328125 C 10.828125 -95.722656 8.695312 -96.003906 6.0625 -96.171875 L 6.0625 -101.453125 L 51.515625 -101.453125 L 51.515625 -96.171875 C 48.523438 -96.085938 46.128906 -95.828125 44.328125 -95.390625 C 42.535156 -94.953125 41.15625 -94.160156 40.1875 -93.015625 C 39.21875 -91.867188 38.578125 -90.285156 38.265625 -88.265625 C 37.960938 -86.253906 37.8125 -83.578125 37.8125 -80.234375 L 37.8125 -25.03125 C 37.8125 -21.34375 38.179688 -18.332031 38.921875 -16 C 39.671875 -13.675781 40.96875 -11.878906 42.8125 -10.609375 C 44.65625 -9.335938 47.113281 -8.457031 50.1875 -7.96875 C 53.269531 -7.488281 57.09375 -7.25 61.65625 -7.25 C 66.75 -7.25 71.007812 -7.554688 74.4375 -8.171875 C 77.863281 -8.785156 80.738281 -9.945312 83.0625 -11.65625 C 85.394531 -13.375 87.265625 -15.679688 88.671875 -18.578125 C 90.078125 -21.472656 91.257812 -25.25 92.21875 -29.90625 L 97.5 -29.90625 Z M 95.390625 0 "/></g></g></g><g fill="#5b9411" fill-opacity="1"><g transform="translate(465.860597, 126.966896)"><g><path d="M 88.265625 1.3125 L 29.90625 -81.8125 L 29.375 -81.8125 L 29.375 -25.171875 C 29.375 -20.773438 29.523438 -17.300781 29.828125 -14.75 C 30.140625 -12.207031 30.800781 -10.234375 31.8125 -8.828125 C 32.820312 -7.421875 34.226562 -6.5 36.03125 -6.0625 C 37.832031 -5.625 40.179688 -5.359375 43.078125 -5.265625 L 43.078125 0 L 3.953125 0 L 3.953125 -5.265625 C 7.203125 -5.359375 9.8125 -5.644531 11.78125 -6.125 C 13.757812 -6.601562 15.296875 -7.5 16.390625 -8.8125 C 17.492188 -10.132812 18.222656 -12.003906 18.578125 -14.421875 C 18.929688 -16.835938 19.109375 -20.109375 19.109375 -24.234375 L 19.109375 -77.203125 C 19.109375 -80.890625 18.929688 -83.941406 18.578125 -86.359375 C 18.222656 -88.773438 17.5625 -90.6875 16.59375 -92.09375 C 15.632812 -93.5 14.253906 -94.488281 12.453125 -95.0625 C 10.648438 -95.632812 8.253906 -96.003906 5.265625 -96.171875 L 5.265625 -101.453125 L 42.03125 -101.453125 L 95.125 -25.296875 L 95.65625 -25.296875 L 95.65625 -76.28125 C 95.65625 -80.582031 95.5 -84.03125 95.1875 -86.625 C 94.882812 -89.21875 94.226562 -91.21875 93.21875 -92.625 C 92.207031 -94.03125 90.800781 -94.953125 89 -95.390625 C 87.195312 -95.828125 84.847656 -96.085938 81.953125 -96.171875 L 81.953125 -101.453125 L 121.078125 -101.453125 L 121.078125 -96.171875 C 117.828125 -96.085938 115.210938 -95.800781 113.234375 -95.3125 C 111.265625 -94.832031 109.726562 -93.929688 108.625 -92.609375 C 107.53125 -91.296875 106.804688 -89.410156 106.453125 -86.953125 C 106.097656 -84.492188 105.921875 -81.242188 105.921875 -77.203125 L 105.921875 1.3125 Z M 88.265625 1.3125 "/></g></g></g><g fill="#5b9411" fill-opacity="1"><g transform="translate(589.705474, 126.966896)"><g><path d="M 37.8125 -56.125 C 43.4375 -56.125 47.957031 -56.296875 51.375 -56.640625 C 54.800781 -56.992188 57.457031 -57.71875 59.34375 -58.8125 C 61.238281 -59.914062 62.582031 -61.519531 63.375 -63.625 C 64.164062 -65.738281 64.78125 -68.597656 65.21875 -72.203125 L 70.09375 -72.203125 L 70.09375 -33.59375 L 65.21875 -33.59375 C 64.6875 -37.101562 63.984375 -39.910156 63.109375 -42.015625 C 62.234375 -44.128906 60.828125 -45.734375 58.890625 -46.828125 C 56.960938 -47.929688 54.347656 -48.632812 51.046875 -48.9375 C 47.753906 -49.25 43.34375 -49.40625 37.8125 -49.40625 L 37.8125 -22.265625 C 37.8125 -19.453125 38.179688 -17.078125 38.921875 -15.140625 C 39.671875 -13.210938 40.925781 -11.65625 42.6875 -10.46875 C 44.445312 -9.289062 46.773438 -8.457031 49.671875 -7.96875 C 52.566406 -7.488281 56.125 -7.25 60.34375 -7.25 C 65.34375 -7.25 69.578125 -7.597656 73.046875 -8.296875 C 76.523438 -9.003906 79.40625 -10.234375 81.6875 -11.984375 C 83.96875 -13.742188 85.8125 -16.09375 87.21875 -19.03125 C 88.625 -21.976562 89.8125 -25.691406 90.78125 -30.171875 L 96.046875 -30.171875 L 93.9375 0 L 4.609375 0 L 4.609375 -5.265625 C 7.503906 -5.359375 9.875 -5.625 11.71875 -6.0625 C 13.570312 -6.5 14.976562 -7.242188 15.9375 -8.296875 C 16.90625 -9.347656 17.5625 -10.835938 17.90625 -12.765625 C 18.257812 -14.703125 18.4375 -17.210938 18.4375 -20.296875 L 18.4375 -81.15625 C 18.4375 -84.226562 18.28125 -86.707031 17.96875 -88.59375 C 17.664062 -90.488281 17.078125 -91.984375 16.203125 -93.078125 C 15.328125 -94.179688 14.078125 -94.929688 12.453125 -95.328125 C 10.828125 -95.722656 8.695312 -96.003906 6.0625 -96.171875 L 6.0625 -101.453125 L 89.328125 -101.453125 L 90.25 -75.625 L 84.578125 -75.625 C 84.054688 -79.3125 83.222656 -82.363281 82.078125 -84.78125 C 80.941406 -87.195312 79.363281 -89.128906 77.34375 -90.578125 C 75.320312 -92.023438 72.707031 -93.035156 69.5 -93.609375 C 66.289062 -94.179688 62.359375 -94.46875 57.703125 -94.46875 L 42.8125 -94.46875 C 40.53125 -94.46875 39.125 -94.179688 38.59375 -93.609375 C 38.070312 -93.035156 37.8125 -91.695312 37.8125 -89.59375 Z M 37.8125 -56.125 "/></g></g></g><g fill="#5b9411" fill-opacity="1"><g transform="translate(690.362423, 126.966896)"><g><path d="M 7.109375 -33.59375 L 12.25 -33.59375 C 13.476562 -25.25 16.816406 -18.679688 22.265625 -13.890625 C 27.710938 -9.109375 34.429688 -6.71875 42.421875 -6.71875 C 45.671875 -6.71875 48.65625 -7.113281 51.375 -7.90625 C 54.101562 -8.695312 56.429688 -9.816406 58.359375 -11.265625 C 60.296875 -12.710938 61.789062 -14.425781 62.84375 -16.40625 C 63.894531 -18.382812 64.421875 -20.601562 64.421875 -23.0625 C 64.421875 -25.164062 64.09375 -26.984375 63.4375 -28.515625 C 62.78125 -30.054688 61.53125 -31.550781 59.6875 -33 C 57.84375 -34.445312 55.316406 -35.914062 52.109375 -37.40625 C 48.898438 -38.90625 44.75 -40.625 39.65625 -42.5625 C 29.375 -46.507812 21.773438 -51.09375 16.859375 -56.3125 C 11.941406 -61.539062 9.484375 -67.710938 9.484375 -74.828125 C 9.484375 -78.960938 10.273438 -82.738281 11.859375 -86.15625 C 13.441406 -89.582031 15.660156 -92.523438 18.515625 -94.984375 C 21.367188 -97.453125 24.789062 -99.363281 28.78125 -100.71875 C 32.78125 -102.082031 37.195312 -102.765625 42.03125 -102.765625 C 46.507812 -102.765625 50.722656 -102.0625 54.671875 -100.65625 C 58.628906 -99.25 62.539062 -97.140625 66.40625 -94.328125 L 68.78125 -100.921875 L 71.9375 -100.921875 L 73.390625 -72.46875 L 68.25 -72.46875 C 66.132812 -79.664062 62.835938 -85.175781 58.359375 -89 C 53.878906 -92.820312 48.695312 -94.734375 42.8125 -94.734375 C 37.375 -94.734375 32.960938 -93.390625 29.578125 -90.703125 C 26.191406 -88.023438 24.5 -84.582031 24.5 -80.375 C 24.5 -78.519531 24.804688 -76.867188 25.421875 -75.421875 C 26.035156 -73.972656 27.175781 -72.585938 28.84375 -71.265625 C 30.519531 -69.953125 32.804688 -68.613281 35.703125 -67.25 C 38.597656 -65.894531 42.332031 -64.382812 46.90625 -62.71875 C 53.050781 -60.34375 58.296875 -57.945312 62.640625 -55.53125 C 66.992188 -53.113281 70.550781 -50.519531 73.3125 -47.75 C 76.082031 -44.988281 78.125 -42.070312 79.4375 -39 C 80.757812 -35.925781 81.421875 -32.546875 81.421875 -28.859375 C 81.421875 -24.378906 80.453125 -20.289062 78.515625 -16.59375 C 76.585938 -12.90625 73.890625 -9.742188 70.421875 -7.109375 C 66.953125 -4.472656 62.820312 -2.410156 58.03125 -0.921875 C 53.25 0.566406 47.957031 1.3125 42.15625 1.3125 C 36.882812 1.3125 32.140625 0.585938 27.921875 -0.859375 C 23.710938 -2.304688 19.367188 -4.65625 14.890625 -7.90625 L 12.25 0 L 9.09375 0 Z M 7.109375 -33.59375 "/></g></g></g><g fill="#5b9411" fill-opacity="1"><g transform="translate(777.712616, 126.966896)"><g><path d="M 7.109375 -33.59375 L 12.25 -33.59375 C 13.476562 -25.25 16.816406 -18.679688 22.265625 -13.890625 C 27.710938 -9.109375 34.429688 -6.71875 42.421875 -6.71875 C 45.671875 -6.71875 48.65625 -7.113281 51.375 -7.90625 C 54.101562 -8.695312 56.429688 -9.816406 58.359375 -11.265625 C 60.296875 -12.710938 61.789062 -14.425781 62.84375 -16.40625 C 63.894531 -18.382812 64.421875 -20.601562 64.421875 -23.0625 C 64.421875 -25.164062 64.09375 -26.984375 63.4375 -28.515625 C 62.78125 -30.054688 61.53125 -31.550781 59.6875 -33 C 57.84375 -34.445312 55.316406 -35.914062 52.109375 -37.40625 C 48.898438 -38.90625 44.75 -40.625 39.65625 -42.5625 C 29.375 -46.507812 21.773438 -51.09375 16.859375 -56.3125 C 11.941406 -61.539062 9.484375 -67.710938 9.484375 -74.828125 C 9.484375 -78.960938 10.273438 -82.738281 11.859375 -86.15625 C 13.441406 -89.582031 15.660156 -92.523438 18.515625 -94.984375 C 21.367188 -97.453125 24.789062 -99.363281 28.78125 -100.71875 C 32.78125 -102.082031 37.195312 -102.765625 42.03125 -102.765625 C 46.507812 -102.765625 50.722656 -102.0625 54.671875 -100.65625 C 58.628906 -99.25 62.539062 -97.140625 66.40625 -94.328125 L 68.78125 -100.921875 L 71.9375 -100.921875 L 73.390625 -72.46875 L 68.25 -72.46875 C 66.132812 -79.664062 62.835938 -85.175781 58.359375 -89 C 53.878906 -92.820312 48.695312 -94.734375 42.8125 -94.734375 C 37.375 -94.734375 32.960938 -93.390625 29.578125 -90.703125 C 26.191406 -88.023438 24.5 -84.582031 24.5 -80.375 C 24.5 -78.519531 24.804688 -76.867188 25.421875 -75.421875 C 26.035156 -73.972656 27.175781 -72.585938 28.84375 -71.265625 C 30.519531 -69.953125 32.804688 -68.613281 35.703125 -67.25 C 38.597656 -65.894531 42.332031 -64.382812 46.90625 -62.71875 C 53.050781 -60.34375 58.296875 -57.945312 62.640625 -55.53125 C 66.992188 -53.113281 70.550781 -50.519531 73.3125 -47.75 C 76.082031 -44.988281 78.125 -42.070312 79.4375 -39 C 80.757812 -35.925781 81.421875 -32.546875 81.421875 -28.859375 C 81.421875 -24.378906 80.453125 -20.289062 78.515625 -16.59375 C 76.585938 -12.90625 73.890625 -9.742188 70.421875 -7.109375 C 66.953125 -4.472656 62.820312 -2.410156 58.03125 -0.921875 C 53.25 0.566406 47.957031 1.3125 42.15625 1.3125 C 36.882812 1.3125 32.140625 0.585938 27.921875 -0.859375 C 23.710938 -2.304688 19.367188 -4.65625 14.890625 -7.90625 L 12.25 0 L 9.09375 0 Z M 7.109375 -33.59375 "/></g></g></g><g fill="#5b9411" fill-opacity="1"><g transform="translate(865.062767, 126.966896)"><g/></g></g><g fill="#5b9411" fill-opacity="1"><g transform="translate(900.108229, 126.966896)"><g><path d="M 7.109375 -33.59375 L 12.25 -33.59375 C 13.476562 -25.25 16.816406 -18.679688 22.265625 -13.890625 C 27.710938 -9.109375 34.429688 -6.71875 42.421875 -6.71875 C 45.671875 -6.71875 48.65625 -7.113281 51.375 -7.90625 C 54.101562 -8.695312 56.429688 -9.816406 58.359375 -11.265625 C 60.296875 -12.710938 61.789062 -14.425781 62.84375 -16.40625 C 63.894531 -18.382812 64.421875 -20.601562 64.421875 -23.0625 C 64.421875 -25.164062 64.09375 -26.984375 63.4375 -28.515625 C 62.78125 -30.054688 61.53125 -31.550781 59.6875 -33 C 57.84375 -34.445312 55.316406 -35.914062 52.109375 -37.40625 C 48.898438 -38.90625 44.75 -40.625 39.65625 -42.5625 C 29.375 -46.507812 21.773438 -51.09375 16.859375 -56.3125 C 11.941406 -61.539062 9.484375 -67.710938 9.484375 -74.828125 C 9.484375 -78.960938 10.273438 -82.738281 11.859375 -86.15625 C 13.441406 -89.582031 15.660156 -92.523438 18.515625 -94.984375 C 21.367188 -97.453125 24.789062 -99.363281 28.78125 -100.71875 C 32.78125 -102.082031 37.195312 -102.765625 42.03125 -102.765625 C 46.507812 -102.765625 50.722656 -102.0625 54.671875 -100.65625 C 58.628906 -99.25 62.539062 -97.140625 66.40625 -94.328125 L 68.78125 -100.921875 L 71.9375 -100.921875 L 73.390625 -72.46875 L 68.25 -72.46875 C 66.132812 -79.664062 62.835938 -85.175781 58.359375 -89 C 53.878906 -92.820312 48.695312 -94.734375 42.8125 -94.734375 C 37.375 -94.734375 32.960938 -93.390625 29.578125 -90.703125 C 26.191406 -88.023438 24.5 -84.582031 24.5 -80.375 C 24.5 -78.519531 24.804688 -76.867188 25.421875 -75.421875 C 26.035156 -73.972656 27.175781 -72.585938 28.84375 -71.265625 C 30.519531 -69.953125 32.804688 -68.613281 35.703125 -67.25 C 38.597656 -65.894531 42.332031 -64.382812 46.90625 -62.71875 C 53.050781 -60.34375 58.296875 -57.945312 62.640625 -55.53125 C 66.992188 -53.113281 70.550781 -50.519531 73.3125 -47.75 C 76.082031 -44.988281 78.125 -42.070312 79.4375 -39 C 80.757812 -35.925781 81.421875 -32.546875 81.421875 -28.859375 C 81.421875 -24.378906 80.453125 -20.289062 78.515625 -16.59375 C 76.585938 -12.90625 73.890625 -9.742188 70.421875 -7.109375 C 66.953125 -4.472656 62.820312 -2.410156 58.03125 -0.921875 C 53.25 0.566406 47.957031 1.3125 42.15625 1.3125 C 36.882812 1.3125 32.140625 0.585938 27.921875 -0.859375 C 23.710938 -2.304688 19.367188 -4.65625 14.890625 -7.90625 L 12.25 0 L 9.09375 0 Z M 7.109375 -33.59375 "/></g></g></g><g fill="#5b9411" fill-opacity="1"><g transform="translate(987.45838, 126.966896)"><g><path d="M 37.8125 -56.125 C 43.4375 -56.125 47.957031 -56.296875 51.375 -56.640625 C 54.800781 -56.992188 57.457031 -57.71875 59.34375 -58.8125 C 61.238281 -59.914062 62.582031 -61.519531 63.375 -63.625 C 64.164062 -65.738281 64.78125 -68.597656 65.21875 -72.203125 L 70.09375 -72.203125 L 70.09375 -33.59375 L 65.21875 -33.59375 C 64.6875 -37.101562 63.984375 -39.910156 63.109375 -42.015625 C 62.234375 -44.128906 60.828125 -45.734375 58.890625 -46.828125 C 56.960938 -47.929688 54.347656 -48.632812 51.046875 -48.9375 C 47.753906 -49.25 43.34375 -49.40625 37.8125 -49.40625 L 37.8125 -22.265625 C 37.8125 -19.453125 38.179688 -17.078125 38.921875 -15.140625 C 39.671875 -13.210938 40.925781 -11.65625 42.6875 -10.46875 C 44.445312 -9.289062 46.773438 -8.457031 49.671875 -7.96875 C 52.566406 -7.488281 56.125 -7.25 60.34375 -7.25 C 65.34375 -7.25 69.578125 -7.597656 73.046875 -8.296875 C 76.523438 -9.003906 79.40625 -10.234375 81.6875 -11.984375 C 83.96875 -13.742188 85.8125 -16.09375 87.21875 -19.03125 C 88.625 -21.976562 89.8125 -25.691406 90.78125 -30.171875 L 96.046875 -30.171875 L 93.9375 0 L 4.609375 0 L 4.609375 -5.265625 C 7.503906 -5.359375 9.875 -5.625 11.71875 -6.0625 C 13.570312 -6.5 14.976562 -7.242188 15.9375 -8.296875 C 16.90625 -9.347656 17.5625 -10.835938 17.90625 -12.765625 C 18.257812 -14.703125 18.4375 -17.210938 18.4375 -20.296875 L 18.4375 -81.15625 C 18.4375 -84.226562 18.28125 -86.707031 17.96875 -88.59375 C 17.664062 -90.488281 17.078125 -91.984375 16.203125 -93.078125 C 15.328125 -94.179688 14.078125 -94.929688 12.453125 -95.328125 C 10.828125 -95.722656 8.695312 -96.003906 6.0625 -96.171875 L 6.0625 -101.453125 L 89.328125 -101.453125 L 90.25 -75.625 L 84.578125 -75.625 C 84.054688 -79.3125 83.222656 -82.363281 82.078125 -84.78125 C 80.941406 -87.195312 79.363281 -89.128906 77.34375 -90.578125 C 75.320312 -92.023438 72.707031 -93.035156 69.5 -93.609375 C 66.289062 -94.179688 62.359375 -94.46875 57.703125 -94.46875 L 42.8125 -94.46875 C 40.53125 -94.46875 39.125 -94.179688 38.59375 -93.609375 C 38.070312 -93.035156 37.8125 -91.695312 37.8125 -89.59375 Z M 37.8125 -56.125 "/></g></g></g><g fill="#5b9411" fill-opacity="1"><g transform="translate(1088.115286, 126.966896)"><g><path d="M 91.5625 -76.015625 C 91.5625 -68.722656 89.453125 -62.617188 85.234375 -57.703125 C 81.023438 -52.785156 74.304688 -49.492188 65.078125 -47.828125 L 95.65625 -12.78125 C 97.757812 -10.320312 100.257812 -8.453125 103.15625 -7.171875 C 106.0625 -5.898438 109.003906 -5.265625 111.984375 -5.265625 L 111.984375 0 L 80.765625 0 L 48.09375 -40.046875 C 45.894531 -42.679688 43.984375 -44.457031 42.359375 -45.375 C 40.734375 -46.300781 39.21875 -46.765625 37.8125 -46.765625 L 37.8125 -20.953125 C 37.8125 -17.703125 38.03125 -15.039062 38.46875 -12.96875 C 38.90625 -10.90625 39.78125 -9.300781 41.09375 -8.15625 C 42.414062 -7.019531 44.328125 -6.253906 46.828125 -5.859375 C 49.335938 -5.460938 52.703125 -5.265625 56.921875 -5.265625 L 56.921875 0 L 4.609375 0 L 4.609375 -5.265625 C 7.503906 -5.265625 9.851562 -5.460938 11.65625 -5.859375 C 13.457031 -6.253906 14.863281 -7 15.875 -8.09375 C 16.882812 -9.195312 17.5625 -10.734375 17.90625 -12.703125 C 18.257812 -14.679688 18.4375 -17.210938 18.4375 -20.296875 L 18.4375 -81.15625 C 18.4375 -84.226562 18.304688 -86.707031 18.046875 -88.59375 C 17.785156 -90.488281 17.210938 -91.984375 16.328125 -93.078125 C 15.453125 -94.179688 14.203125 -94.929688 12.578125 -95.328125 C 10.953125 -95.722656 8.78125 -96.003906 6.0625 -96.171875 L 6.0625 -101.453125 L 51.640625 -101.453125 C 64.378906 -101.453125 74.21875 -99.210938 81.15625 -94.734375 C 88.09375 -90.253906 91.5625 -84.015625 91.5625 -76.015625 Z M 37.8125 -54.671875 L 46.375 -54.671875 C 54.632812 -54.671875 60.804688 -56.273438 64.890625 -59.484375 C 68.972656 -62.691406 71.015625 -67.984375 71.015625 -75.359375 C 71.015625 -80.984375 69.300781 -85.503906 65.875 -88.921875 C 62.445312 -92.347656 57.703125 -94.0625 51.640625 -94.0625 L 40.1875 -94.0625 C 38.601562 -94.0625 37.8125 -93.316406 37.8125 -91.828125 Z M 37.8125 -54.671875 "/></g></g></g><g fill="#5b9411" fill-opacity="1"><g transform="translate(1189.035742, 126.966896)"><g><path d="M 57.703125 -22.65625 L 74.828125 -66.53125 C 76.503906 -70.832031 77.847656 -74.34375 78.859375 -77.0625 C 79.867188 -79.789062 80.632812 -82.03125 81.15625 -83.78125 C 81.6875 -85.539062 82.035156 -86.945312 82.203125 -88 C 82.378906 -89.0625 82.46875 -90.078125 82.46875 -91.046875 C 82.46875 -93.148438 81.675781 -94.53125 80.09375 -95.1875 C 78.519531 -95.84375 75.363281 -96.171875 70.625 -96.171875 L 70.625 -101.453125 L 108.03125 -101.453125 L 108.03125 -96.171875 C 100.738281 -96.171875 95.691406 -92.613281 92.890625 -85.5 L 58.234375 1.3125 L 48.484375 1.3125 L 17 -75.625 C 15.238281 -79.75 13.65625 -83.128906 12.25 -85.765625 C 10.84375 -88.398438 9.347656 -90.484375 7.765625 -92.015625 C 6.191406 -93.554688 4.457031 -94.613281 2.5625 -95.1875 C 0.675781 -95.757812 -1.535156 -96.046875 -4.078125 -96.046875 L -4.078125 -101.453125 L 45.71875 -101.453125 L 45.71875 -96.046875 C 43.4375 -95.960938 41.523438 -95.832031 39.984375 -95.65625 C 38.453125 -95.476562 37.242188 -95.191406 36.359375 -94.796875 C 35.484375 -94.398438 34.867188 -93.867188 34.515625 -93.203125 C 34.160156 -92.546875 33.984375 -91.738281 33.984375 -90.78125 C 33.984375 -89.550781 34.203125 -88.097656 34.640625 -86.421875 C 35.085938 -84.753906 35.75 -82.738281 36.625 -80.375 Z M 57.703125 -22.65625 "/></g></g></g><g fill="#5b9411" fill-opacity="1"><g transform="translate(1295.094381, 126.966896)"><g><path d="M 51.78125 0 L 4.75 0 L 4.75 -5.265625 C 7.726562 -5.359375 10.117188 -5.644531 11.921875 -6.125 C 13.722656 -6.601562 15.101562 -7.5 16.0625 -8.8125 C 17.03125 -10.132812 17.691406 -12.003906 18.046875 -14.421875 C 18.398438 -16.835938 18.578125 -20.109375 18.578125 -24.234375 L 18.578125 -77.203125 C 18.578125 -80.890625 18.421875 -83.941406 18.109375 -86.359375 C 17.804688 -88.773438 17.210938 -90.6875 16.328125 -92.09375 C 15.453125 -93.5 14.203125 -94.488281 12.578125 -95.0625 C 10.953125 -95.632812 8.78125 -96.003906 6.0625 -96.171875 L 6.0625 -101.453125 L 50.453125 -101.453125 L 50.453125 -96.171875 C 47.734375 -96.003906 45.5625 -95.632812 43.9375 -95.0625 C 42.3125 -94.488281 41.054688 -93.5 40.171875 -92.09375 C 39.296875 -90.6875 38.703125 -88.773438 38.390625 -86.359375 C 38.085938 -83.941406 37.9375 -80.890625 37.9375 -77.203125 L 37.9375 -24.234375 C 37.9375 -20.109375 38.085938 -16.835938 38.390625 -14.421875 C 38.703125 -12.003906 39.363281 -10.132812 40.375 -8.8125 C 41.382812 -7.5 42.789062 -6.601562 44.59375 -6.125 C 46.394531 -5.644531 48.789062 -5.359375 51.78125 -5.265625 Z M 51.78125 0 "/></g></g></g><g fill="#5b9411" fill-opacity="1"><g transform="translate(1350.297597, 126.966896)"><g><path d="M 93.140625 -101.453125 L 99.609375 -101.453125 L 96.96875 -68.109375 L 91.703125 -68.109375 C 89.859375 -76.191406 86.273438 -82.5625 80.953125 -87.21875 C 75.640625 -91.875 69.207031 -94.203125 61.65625 -94.203125 C 56.476562 -94.203125 51.867188 -93.171875 47.828125 -91.109375 C 43.785156 -89.046875 40.378906 -86.101562 37.609375 -82.28125 C 34.847656 -78.457031 32.738281 -73.800781 31.28125 -68.3125 C 29.832031 -62.820312 29.109375 -56.648438 29.109375 -49.796875 C 29.109375 -36.179688 31.894531 -25.707031 37.46875 -18.375 C 43.050781 -11.039062 51.289062 -7.375 62.1875 -7.375 C 70.96875 -7.375 78.234375 -9.742188 83.984375 -14.484375 C 89.742188 -19.234375 93.851562 -26.304688 96.3125 -35.703125 L 102.109375 -35.703125 L 102.109375 0 L 95.921875 0 L 94.0625 -10.40625 C 84.40625 -2.59375 72.679688 1.3125 58.890625 1.3125 C 50.898438 1.3125 43.65625 0.128906 37.15625 -2.234375 C 30.65625 -4.609375 25.117188 -7.96875 20.546875 -12.3125 C 15.984375 -16.664062 12.445312 -21.957031 9.9375 -28.1875 C 7.4375 -34.425781 6.1875 -41.367188 6.1875 -49.015625 C 6.1875 -57.003906 7.503906 -64.289062 10.140625 -70.875 C 12.773438 -77.46875 16.484375 -83.132812 21.265625 -87.875 C 26.054688 -92.613281 31.769531 -96.28125 38.40625 -98.875 C 45.039062 -101.46875 52.394531 -102.765625 60.46875 -102.765625 C 65.832031 -102.765625 70.835938 -102.015625 75.484375 -100.515625 C 80.140625 -99.023438 85.191406 -96.613281 90.640625 -93.28125 Z M 93.140625 -101.453125 "/></g></g><g transform="translate(1458.727836, 126.966896)"><g><path d="M 37.8125 -56.125 C 43.4375 -56.125 47.957031 -56.296875 51.375 -56.640625 C 54.800781 -56.992188 57.457031 -57.71875 59.34375 -58.8125 C 61.238281 -59.914062 62.582031 -61.519531 63.375 -63.625 C 64.164062 -65.738281 64.78125 -68.597656 65.21875 -72.203125 L 70.09375 -72.203125 L 70.09375 -33.59375 L 65.21875 -33.59375 C 64.6875 -37.101562 63.984375 -39.910156 63.109375 -42.015625 C 62.234375 -44.128906 60.828125 -45.734375 58.890625 -46.828125 C 56.960938 -47.929688 54.347656 -48.632812 51.046875 -48.9375 C 47.753906 -49.25 43.34375 -49.40625 37.8125 -49.40625 L 37.8125 -22.265625 C 37.8125 -19.453125 38.179688 -17.078125 38.921875 -15.140625 C 39.671875 -13.210938 40.925781 -11.65625 42.6875 -10.46875 C 44.445312 -9.289062 46.773438 -8.457031 49.671875 -7.96875 C 52.566406 -7.488281 56.125 -7.25 60.34375 -7.25 C 65.34375 -7.25 69.578125 -7.597656 73.046875 -8.296875 C 76.523438 -9.003906 79.40625 -10.234375 81.6875 -11.984375 C 83.96875 -13.742188 85.8125 -16.09375 87.21875 -19.03125 C 88.625 -21.976562 89.8125 -25.691406 90.78125 -30.171875 L 96.046875 -30.171875 L 93.9375 0 L 4.609375 0 L 4.609375 -5.265625 C 7.503906 -5.359375 9.875 -5.625 11.71875 -6.0625 C 13.570312 -6.5 14.976562 -7.242188 15.9375 -8.296875 C 16.90625 -9.347656 17.5625 -10.835938 17.90625 -12.765625 C 18.257812 -14.703125 18.4375 -17.210938 18.4375 -20.296875 L 18.4375 -81.15625 C 18.4375 -84.226562 18.28125 -86.707031 17.96875 -88.59375 C 17.664062 -90.488281 17.078125 -91.984375 16.203125 -93.078125 C 15.328125 -94.179688 14.078125 -94.929688 12.453125 -95.328125 C 10.828125 -95.722656 8.695312 -96.003906 6.0625 -96.171875 L 6.0625 -101.453125 L 89.328125 -101.453125 L 90.25 -75.625 L 84.578125 -75.625 C 84.054688 -79.3125 83.222656 -82.363281 82.078125 -84.78125 C 80.941406 -87.195312 79.363281 -89.128906 77.34375 -90.578125 C 75.320312 -92.023438 72.707031 -93.035156 69.5 -93.609375 C 66.289062 -94.179688 62.359375 -94.46875 57.703125 -94.46875 L 42.8125 -94.46875 C 40.53125 -94.46875 39.125 -94.179688 38.59375 -93.609375 C 38.070312 -93.035156 37.8125 -91.695312 37.8125 -89.59375 Z M 37.8125 -56.125 "/></g></g></g></g></g></svg>